<svg aria-hidden="true" viewBox="0 0 68 24" fill="none" xmlns="http://www.w3.org/2000/svg"><path fill-rule="evenodd" clip-rule="evenodd" d="M21.419 0V6.15129H14.6559V24H7.21617V6.15129H0.453125V0H21.419ZM42.9026 0V6.14144L29.985 6.15129V9.09722H42.9026V14.8271L29.985 14.8182V17.8489H42.9026V24H22.5455V0H42.9026ZM56.3491 0C64.3969 0 67.2375 5.91584 67.2375 11.9665C67.2375 19.3279 63.3154 24 54.8947 24H44.1417V0H56.3491ZM53.9481 6.15129H51.5812V17.8489H54.489C59.122 17.8489 59.7983 14.1177 59.7983 11.8658C59.7983 10.3532 59.3247 6.15129 53.9481 6.15129Z" fill="#EB0028"></path></svg>